<svg xmlns="http://www.w3.org/2000/svg" width="599.745" height="474.099" viewBox="0 0 599.745 474.099"><path d="M0 347.721c28.364-6.613 58.159-18.293 82.772-38.529.815-.679 1.63-1.368 2.434-2.058 52.507-45.058 132.02-48.694 169.013-47.639h.031c10.782.303 17.938 1.014 19.766 1.202C81.466 229.397 4.879 340.314 0 347.72zm40.388-30.882s22.953-35.937 113.132-53.854c-7.669 1.692-41.747 10.948-113.132 53.854zm36.665 25.836c-7.093 1.243-12.473 7.428-12.473 14.877h24.937c0-7.45-5.38-13.634-12.464-14.877z" fill="#0090c9"/><path d="M175.047 175.741c-5.276-.26-9.946 2.612-14.48 3.26-6.1.867-13.32 3.332-19.724-.846-1.818-1.191-3.719.198-5.088 1.577-1.16 1.17-1.514 2.79-.835 4.336.606 1.379 1.86 1.995 3.249 1.943 7.94-2.152 16.046-1.076 23.913-2.33 2.413-.386 4.46-.501 5.819 1.954 1.609 2.894 3.918 2.82 5.913.794 2.654-2.706 6.947-4.816 5.276-9.758-.637-1.912-2.55-.856-4.043-.93zm-2.069-22.92c-2.601-.586-12.359 9.475-11.324 11.867 1.567 3.626 5.38 5.099 8.796 5.506 3.04.366 5.213-2.455 6.07-5.464.668-2.382-2.81-4.106-1.337-6.644-.303-2.048.679-4.618-2.205-5.265zm-13.33 1.807c-3.113-.25-5.694 1.024-8.326 2.35-1.484.753-1.975 1.933-1.547 3.417.512 1.734 2.1 1.755 3.417 1.483 2.977-.606 5.913-1.39 8.806-2.277.627-.188 1.024-1.129 1.39-1.567-.627-2.184-1.693-3.239-3.74-3.406zm-39.166-33.608c2.632-3.699 2.173-.157 3.05.438l.126 2.048c-.533 3.333 2.382 2.904 3.865 2.883 2.528-.041 5.025-1.044 7.564-1.493 2.36-.429 3.49-.92 2.852-4.033-.721-3.52-2.246-8.232 5.171-7.679 2.539.199 9.716-1.013 7.125-6.372-1.985-4.127-7.01-7.69-13.059-6.018-3.385-.01-6.77-.01-10.165-.02-3.207-1.756-5.673.95-8.232 1.796-6.843 2.278-13.853 4.586-19.18 9.883-1.202 1.191-2.383 2.737-1.328 4.618 1.264 2.246 2.821.585 4.45.376 4.315-.543 7.606-2.873 11.085-5.109 3.542-2.267 7.386-4.137 10.802.878-6.278 3.541-12.442 7.02-19.86 11.199 7.355 2.925 12.662.92 15.734-3.395zM267.65 251.483c6.1-4.148 5.714-7.94-.763-11.168-3.207-1.588-7.062-1.818-9.841-4.785 5.443-5.453 13.017-1.327 20.894-4.774-10.113 0-19.327-3.333-26.995-7.637a3.8 3.8 0 0 1-.199-.105 76.751 76.751 0 0 1-4.294-2.622 67.703 67.703 0 0 1-1.911-1.285s-.01 0-.01-.01a99.361 99.361 0 0 1-1.547-1.097 86.704 86.704 0 0 1-3.636-2.81h-.01a89.278 89.278 0 0 1-8.702-8.076l-.01-.01c-1.516-1.62-2.33-2.623-2.33-2.623-.272-.971-.544-1.943-.805-2.925-.188-1.64-.637-3.124-1.41-4.398a8.824 8.824 0 0 0-2.152-2.403 33.213 33.213 0 0 0-4.816-6.06l-.01-.01a31.073 31.073 0 0 0-4.222-3.5c0-.01-.01-.01-.01-.01a32.229 32.229 0 0 0-9.089-4.356 33.63 33.63 0 0 0-3.249-.794c-2.173-.408-3.542-.418-3.542-.418-.062.073-.114.136-.177.198.052-.062.104-.125.167-.198-.345-1.369.188-3.103-1.609-3.876-.115-.68-.22-1.369-.334-2.058 1.15-.188 1.525-.752 1.525-1.484 0-.365-.094-.783-.23-1.211.094-1.484.178-2.967.272-4.45.292-.596.397-1.181.397-1.766 0-1.776-.993-3.521-.69-5.328l.063-1.923.721-10.865c2.079-1.201 2.225-2.956 1.41-4.972l.094-4.796c.303-.512.596-1.023.899-1.525.836-5.537 9.235-6.362 8.159-12.933 2.612.637 6.038 2.381 4.315-3.04-.575-1.84.083-2.32 1.358-3.197 1.577-1.087 3.802-1.943 3.374-4.597-4.325-.355-8.744-6.665-6.55-9.872 3.625-5.297.313-11.858 3.698-17.123.512-.794-.115-2.988-.93-3.845-4.847-5.067-2.11-11.93-4.398-17.561.867-3.04-.45-5.224-2.748-7.031 3.939-5.62-.073-6.833-4.366-7.877-.084-.7-.157-1.4-.23-2.1-.261-3.061-8.922-12.14-10.96-11-5.891 3.332-6.529-.941-7.908-4.67-.637-1.693-2.194-2.038-3.865-2.048-.804-.01-2.424 1.337-2.267-.544.345-4.304-4.92-5.672-4.022-11.345-3.667 4.9-5.276 2.549-7.48.355-1.734-1.713-1.724-5.902-4.242-5.37-5.349 1.129-7.595-2.779-10.98-5.056-2.873-1.933-5.87-3.72-8.963.02-.596.711-3.04 1.066-3.26.722-3.635-5.788-9.893-3.667-14.824-5.401-9.695-3.396-17.363-2.361-24.561 5.38-5.715 6.132-7.585 14.135-3.04 18.606.146.324.282.648.418.972-.408 1.065-.136 1.682 1.097 1.682.47 1.953 1.044 3.896-.115 5.819-6.05.7-2.215-6.216-5.746-7.46-.272-.595-.554-1.19-.826-1.797.356-1.734-.48-2.298-2.079-2.12-.219-.261-.48-.47-.783-.627-1.975-3.218-4.158-3.186-7.104-.982-2.664 1.985-5.077 4.116-9.402 2.12-3.135-1.441-7.49-.678-11.22-.198-2.006.261-3.636 2.225-3.229 4.701.429 2.529 2.58 1.787 4.21 1.85 1.484.052 3.061-.283 4.002 1.389-1.223 1.473-2.957.815-4.399 1.212-4.262 1.201-8.932 1.588-11.554 6.07-.857 1.473-1.682 2.758-.355 4.189 1.222 1.306 2.413.522 3.719-.188 1.473-.794 3.51-2.654 4.053.96l-.323.283c-4.9 5.746 2.528 9.737 2.549 15.629-2.518-.773-4.409-1.442-6.363-1.933-3.562-.898-8.138-1.222-10.102 1.327-4.367 5.673-9.434 11.638-7.187 19.922.01 1.348.03 2.706.041 4.054-.428 2.1-3.332 4.032-.428 6.362l.188 11.46c-2.016 3.417-.178 5.287 2.706 6.728 2.32 3.991-.439 9.246 3.249 12.882-1.954 1.703-2.298 3.353.146 4.91.293.198.596.397.899.595 1.097 2.215 2.13 2.257 3.071-.115 2.1-.867 4.179-.49 6.268.063.303 1.107.857 1.85 2.173 1.442.314.177.617.365.93.543.585 1.504 1.442 2.664 3.28 2.59.565.868 1.14 1.735 1.703 2.602v3.448l-3.468 4.92c-2.769.7-2.037 3.448-.899 3.615 2.1.324 4.89 3.395 6.76-.491.282-1.212.564-2.424.856-3.636.847 1.348 2.1 1.327 3.448 1.003 3.479 3.291-.167 8.212.94 10.103 3.625 6.174 3.824 11.92 1.901 18.282-.292.94-.323 1.703 1.024 1.577.073 1.191.147 2.393.21 3.594-.575.732-.502 1.254.47 1.494 1.128 4.743 2.8 8.901 8.869 8.441.355 1.254 1.107 1.776 2.403 1.296.96.825 1.912 1.64 2.873 2.455.135 1.076.522 1.901 1.786 1.922l.345.334c.25 1.359.794 2.424 2.392 2.508l1.65 1.744c1.568 2.435 3.521 4.472 5.621 6.352 2.11 1.891 4.357 3.615 6.509 5.422 2.32 1.943 6.07 1.337 7.553-.825 2.006-2.925-1.64-3.99-3.52-5.067-4.503-2.59-9.486-4.628-10.782-10.384a255.73 255.73 0 0 1-3.155-16.33c-.334-2.047-1.661-4.899 1.128-6.006 2.246-.888 3.521 1.671 5.004 3.02 1.056.95 1.453 3.217 3.553 1.942 1.66-1.013 2.016-2.81 1.66-4.607-.595-3.082-1.63-5.976-3.604-8.535-3.604-4.69-7.041-9.507-10.54-14.27a1.15 1.15 0 0 0-.544-.628c.188-1.138-.366-1.755-1.4-2.047-.24-2.967 1.045-6.05-.669-8.912.262-1.39-.407-1.964-1.723-1.995a.748.748 0 0 0-.387-.45c.199-1.274-.45-1.765-1.63-1.754l-1.692-2.821c.01-1.222.01-2.445.02-3.667l.074-.063c3.239-2.34 4.273-5.432 3.186-9.256.418-1.87.836-3.73 1.254-5.589 1.243-.094 1.327-.752.836-1.692.386-1.526.783-3.05 1.17-4.576 2.142-1.755 1.818-3.51-.01-5.255-.063-1.724-.115-3.448-.168-5.171 1.463-.345 2.497-1.024 2.121-2.78.178-.302.345-.595.522-.898 1.4-.188 2.017-.888 1.515-2.319.387-.992.763-1.995 1.15-2.988 1.922-.543 2.298-1.765 1.525-3.49 1.013-3.562-1.39-4.533-4.043-5.306-.032-.721-.063-1.442-.105-2.163-.564-4.523 1.902-8.337 2.894-12.494 2.152-1.766 1.264-4.033 1.013-6.185.491-.355.972-.71 1.463-1.066 4.482.658 8.932.721 13.289-.794 2.643 2.142 5.328 1.317 8.013.115 1.42.784 1.9-.02 2.12-1.253.721-.272 1.432-.544 2.152-.805.982.334 1.61.146 1.588-1.055 2.79-.303 5.58-.616 8.368-.92 2.842-.062 2.173-1.65 1.191-3.05-1.682-2.403.262-2.841 1.755-3.583 1.557.073 3.114.146 4.66.22.324.219.658.438.982.647l-.031 2.12c-2.623 2.508-2.821 4.535 1.128 5.746 1.66.46 3.312.91 4.973 1.359 1.797 1.932 3.97 1.776 6.237 1.138l5.17.659c1.725 2.36 4.462 2.33 6.927 2.935l3.009 1.63c.073 1.274.616 1.953 1.995 1.588.387.292.784.585 1.17.888.01.95.397 1.442 1.41 1.19.21.252.45.44.743.575.01 1.536.856 2.226 2.319 2.299l2.027 2.13c-.147 1.934 1.002 2.863 2.653 3.396.052.335.188.627.418.878-.376 1.431.292 2.1 1.661 2.267.522.95 1.034 1.89 1.557 2.841-.376 1.076.031 1.693 1.138 1.88l.418 12.38c-.731 1.818-.334 3.156 1.661 3.782.324.94.659 1.87.982 2.81-1.337 2.445-3.552 1.275-5.484 1.359-4.816.22-9.967-1.431-14.167 2.424-2.507.616-4.304 2.11-5.505 4.377-4.315 4.21-4.513 12.798-.345 16.558 2.016-3.73 4.033-7.448 6.038-11.167.262-.115.492-.272.7-.47 1.87.438 3.082-.345 3.803-2.038.533-.104 1.055-.209 1.588-.313 1.745.888 3.49.846 5.255.052.512.084 1.024.178 1.525.261 2.382 4.294-.313 5.516-3.771 6.07-5.349.857-9.214 3.416-12.4 9.778 4.084-1.964 6.529-3.144 9.025-4.345.899 1.63 1.808 3.06 2.487 4.607.731 1.671 3.353 1.723 3.103 4.367-.721 7.783 1.692 9.663 9.068 7.187 2.632 6.279 6.362 14 1.901 19.15-7.146 8.253-7.7 17.53-8.305 27.037-.617 9.872-5.495 17.613-10.458 25.553-3.197 5.098-8.358 1.724-11.94 3.28-9.894 4.305-18.93 4.91-27.1-2.423-2.623 1.462-1.223 4.011-2.665 5.37-5.359-1.808-12.076 1.577-10.091 4.252 4.586 6.184-1.682 5.411-3.615 7.47-1.285 1.368-2.737 2.674-3.657 4.272-1.567 2.727-2.956 2.779-5.798 1.316-12.933-6.623-21.583-17.196-28.081-29.732-2.236-4.304-3.908-3.03-5.788-.178-1.295 1.985-2.225 4.21-3.322 6.331l-.021.021c-.094.084-.533.47-1.233 1.15-.449.417-1.013.96-1.671 1.608l-.575.575c-.47.46-.982.971-1.536 1.536l-1.065 1.096a220.034 220.034 0 0 0-9.298 10.322l-.01.01c-.325.387-.659.774-.983 1.17a149.934 149.934 0 0 0-2.57 3.145 262.4 262.4 0 0 0-1.723 2.163c-.763.982-1.547 1.995-2.33 3.03-.063.01-.125.01-.199.01a78.98 78.98 0 0 1-.532.961v.01a215.329 215.329 0 0 0-3.437 4.733c-.115 0-.24 0-.356-.01-.303.553-.595 1.096-.898 1.64.01.042.02.094.02.136-1.274 1.849-2.548 3.76-3.812 5.725a6.413 6.413 0 0 1-.481.146c-.188.407-.376.815-.575 1.233 0 .104-.01.209-.01.303a191.92 191.92 0 0 0-4.941 8.336v.021c-.345.606-.68 1.202-1.014 1.818a174.544 174.544 0 0 0-3.97 7.762c-.888 1.86-1.755 3.75-2.58 5.673-.073.157-.136.313-.21.48a146.22 146.22 0 0 0-1.848 4.524c-.324.825-.637 1.661-.95 2.497a120.666 120.666 0 0 0-1.787 5.171 116.326 116.326 0 0 0-1.818 6.07 120.827 120.827 0 0 0-2.424 10.719 76.925 76.925 0 0 0-.45 2.705 105.964 105.964 0 0 0-1.242 13.947c-.021.784-.032 1.578-.032 2.372l4.66-4.597c.71-.69 1.494-1.442 2.35-2.246 9.539-9.068 27.487-25.25 45.508-36.836a185.345 185.345 0 0 1 22.91-11.565l.01-.01c23.381-9.863 48.182-14.804 74.039-15.985 20.34-.92 40.68-.49 60.896 2.507a68.66 68.66 0 0 0 1.013-.804l3.75.314c3.083 2.193 6.468 2.789 10.134 1.964.92.083 1.84.177 2.758.26.868.544 1.724 1.098 2.58 1.64.868.293 1.746.596 2.634.9 1.42-.084 2.83-.178 4.251-.262l4.994-.157c1.358-.01 2.706-.01 4.064-.01 2.11-1.118 4.367-2.037 6.32-3.374zM77.053 342.675a15.62 15.62 0 0 0-2.632-.23c-8.337 0-15.096 6.76-15.096 15.107h5.255c0-7.45 5.38-13.634 12.473-14.877zm34.726 14.877h10.113c0-13.937 10.05-25.523 23.297-27.904a27.835 27.835 0 0 0-5.056-.46c-15.65 0-28.354 12.703-28.354 28.364zm120.56-46.312a34.99 34.99 0 0 0-6.478-.606c-22.231 0-40.252 21.009-40.252 46.918h12.944c0-23.34 14.626-42.708 33.786-46.312zM125.875 416.117a34.863 34.863 0 0 0-4.425-4.248 35.931 35.931 0 0 0-5.074-3.422c-4.955-2.871-10.678-4.306-17.168-4.306-9.715 0-17.946 3.343-24.691 10.03-6.747 6.686-10.118 14.887-10.118 24.602 0 9.676 3.371 17.857 10.118 24.543 6.745 6.687 14.976 10.03 24.69 10.03 9.833 0 17.995-3.343 24.485-10.03a22.56 22.56 0 0 0 2.183-2.537v11.033h8.496v-33.039c0-4.367-.748-8.467-2.242-12.302a34.95 34.95 0 0 0-6.254-10.354zm-7.375 42.066c-5.153 5.271-11.466 7.906-18.938 7.906-7.474 0-13.787-2.615-18.939-7.847-5.153-5.27-7.728-11.72-7.728-19.352 0-7.63 2.575-14.08 7.728-19.351 5.152-5.27 11.465-7.906 18.939-7.906 7.472 0 13.785 2.625 18.938 7.876 5.153 5.251 7.73 11.692 7.73 19.322 0 7.631-2.577 14.082-7.73 19.352zm101.36-54.22c-7.63 0-13.59 2.558-17.876 7.67-1.22 1.416-2.263 3.068-3.127 4.956a26.188 26.188 0 0 0-3.481-4.956c-4.642-5.112-11.092-7.67-19.352-7.67-7.474 0-13.314 2.558-17.523 7.67l-.708.826v-6.785h-8.436v66.138h8.495V433.05c0-6.844 1.564-12.125 4.69-15.841 3.128-3.717 7.562-5.576 13.305-5.576 5.624 0 10.03 1.859 13.216 5.576 3.186 3.716 4.779 8.879 4.779 15.487v39.116h8.496V433.05c0-6.844 1.563-12.125 4.69-15.841 3.127-3.717 7.561-5.576 13.304-5.576 5.624 0 10.02 1.859 13.186 5.576 3.166 3.716 4.75 8.86 4.75 15.427v39.176h8.496v-38.23c0-9.284-2.37-16.54-7.11-21.772-4.74-5.23-11.338-7.847-19.794-7.847zm100.357 12.154a34.864 34.864 0 0 0-4.425-4.248 35.93 35.93 0 0 0-5.074-3.422c-4.955-2.871-10.678-4.306-17.169-4.306-9.715 0-17.945 3.343-24.69 10.03-6.747 6.686-10.118 14.887-10.118 24.602 0 9.676 3.371 17.857 10.118 24.543 6.745 6.687 14.975 10.03 24.69 10.03 9.833 0 17.995-3.343 24.485-10.03a22.564 22.564 0 0 0 2.183-2.537v11.033h8.496v-33.039c0-4.367-.748-8.467-2.242-12.302a34.95 34.95 0 0 0-6.254-10.354zm-7.375 42.066c-5.153 5.271-11.466 7.906-18.938 7.906-7.474 0-13.787-2.615-18.939-7.847-5.153-5.27-7.729-11.72-7.729-19.352 0-7.63 2.576-14.08 7.73-19.351 5.151-5.27 11.464-7.906 18.938-7.906 7.472 0 13.785 2.625 18.938 7.876 5.153 5.251 7.73 11.692 7.73 19.322 0 7.631-2.577 14.082-7.73 19.352zm41.654-47.14c-.905 1.141-1.731 2.517-2.478 4.13v-9.499h-8.437v66.138h8.496v-37.7c0-6.804 1.808-12.036 5.428-15.694 3.304-3.264 7.767-5.113 13.393-5.546v-8.909c-7.434.276-12.902 2.636-16.402 7.08zm50.68-28.496h-8.496v23.127h-14.042v7.61h14.042v58.528h8.496v-58.527h15.634v-7.611h-15.634v-23.127zm26.018 89.265h8.496v-66.138h-8.496v66.138zm8.437-82.598h-8.378v8.378h8.378v-8.378zm46.314 14.75c-4.956 0-9.254.836-12.891 2.507-3.639 1.672-6.658 3.982-9.057 6.932-2.4 2.95-4.188 6.451-5.369 10.501-1.18 4.053-1.77 8.458-1.77 13.216v34.692h8.497V436.53c0-7.985 1.779-14.13 5.34-18.438 3.558-4.306 8.642-6.46 15.25-6.46 6.45 0 11.484 2.124 15.104 6.372 3.618 4.248 5.428 10.128 5.428 17.641v36.166h8.496v-35.93c0-10.03-2.557-17.857-7.67-23.482-5.114-5.624-12.233-8.437-21.358-8.437zm103.19 39.234a23.328 23.328 0 0 1-1.004 5.486c-1.416 4.524-4.17 8.417-8.26 11.682-5.704 4.602-12.174 6.45-19.41 5.546-6.216-.787-11.486-3.402-15.812-7.847l46.727-37.64a23.927 23.927 0 0 0-1.83-2.597c-6.096-7.552-13.834-11.849-23.215-12.892-9.38-1.041-17.828 1.466-25.34 7.523-7.513 6.018-11.77 13.717-12.773 23.098-1.003 9.381 1.543 17.867 7.64 25.458 6.057 7.552 13.785 11.839 23.187 12.862 9.4 1.022 17.837-1.475 25.31-7.493 5.702-4.602 9.558-10.403 11.564-17.405.55-1.888.923-3.776 1.12-5.664l-7.905-.117zM536.27 436c.629-7.276 3.756-13.176 9.38-17.7 5.665-4.562 12.095-6.372 19.294-5.428 5.741.747 10.717 3.088 14.926 7.02l-40.001 32.214c-2.832-5.073-4.032-10.443-3.6-16.106zM18.875 463.73v-81.3H9.908v89.383h45.9l-7.964-8.083H18.875z" fill="#303030"/><path d="M85.206 307.134c-.804.69-1.619 1.38-2.434 2.058 1.337-.376 65.378-18.157 95.455-33.065 29.92-14.835 74.634-16.58 75.992-16.632-36.993-1.055-116.506 2.581-169.013 47.64zm34.852-14.333c1.379-1.003 24.226-17.092 52.026-22.451-1.463.543-25.303 9.298-52.026 22.45zm112.285 18.439c-19.16 3.604-33.786 22.973-33.786 46.312h67.55c0-23.34-14.615-42.698-33.764-46.312zm92.728 42.895h-23.809v-66.809h-7.365v73.454h37.714l-6.54-6.645zm70.382-66.809l-20.905 41.747-21.082-41.747h-8.494l25.648 48.872v24.582h7.376v-24.53l25.647-48.924h-8.19zm71.364 66.611c-2.894.909-5.924 1.358-9.09 1.358-4.262 0-8.273-.815-12.024-2.445-3.75-1.63-7.02-3.865-9.82-6.686-2.79-2.83-4.994-6.132-6.613-9.914-1.62-3.782-2.424-7.846-2.424-12.17 0-2.884.366-5.653 1.087-8.317a31.47 31.47 0 0 1 3.102-7.47 31.274 31.274 0 0 1 4.848-6.32 31.353 31.353 0 0 1 6.258-4.9 30.323 30.323 0 0 1 7.375-3.154 30.137 30.137 0 0 1 8.212-1.118c3.071 0 6.007.428 8.796 1.285a31.82 31.82 0 0 1 7.835 3.614l4.608-4.795a36.628 36.628 0 0 0-10.04-4.92c-3.615-1.15-7.449-1.724-11.492-1.724-3.49 0-6.853.45-10.102 1.358a38.116 38.116 0 0 0-9.09 3.824 38.62 38.62 0 0 0-7.709 5.923 36.825 36.825 0 0 0-5.965 7.658 38.171 38.171 0 0 0-3.834 9.068 37.45 37.45 0 0 0-1.359 10.081c0 3.49.46 6.854 1.359 10.082a38.17 38.17 0 0 0 3.834 9.068 36.824 36.824 0 0 0 5.965 7.657 38.617 38.617 0 0 0 7.71 5.924 38.113 38.113 0 0 0 9.089 3.824c3.249.908 6.613 1.358 10.102 1.358 3.95 0 7.71-.564 11.304-1.693 3.583-1.139 6.895-2.716 9.935-4.753l-3.834-5.527a30.503 30.503 0 0 1-8.023 3.824zm60.802-85.854l-19.829 10.666 3.155 5.809 19.923-10.562-3.25-5.913zm-22.106 86.052v-27.1h18.428v-6.644h-18.428v-26.42h26.326l6.55-6.645h-40.242v73.454h40.242l-6.55-6.645h-26.326zm61.366 0v-27.1h18.418v-6.644h-18.418v-26.42h26.326l6.54-6.645h-40.242v73.454h40.242l-6.54-6.645H566.88z" fill="#e62325"/></svg>